# Blender v2.78 (sub 0) OBJ File: '5.blend'
# www.blender.org
mtllib Shelf_01.mtl
o Shelf_01_Plane.005
v 4.064242 1.480102 1.396479
v 3.588565 1.480102 1.396479
v 4.064242 0.106476 0.022854
v 4.064242 1.480102 0.022854
v 3.588566 0.106476 0.022854
v 3.588566 1.480102 0.022854
v -4.064242 1.480102 1.396480
v -3.588566 1.480102 1.396480
v -4.064242 0.106476 0.022854
v -4.064242 1.480102 0.022854
v -3.588566 0.106476 0.022854
v -3.588566 1.480102 0.022854
v 4.935698 1.471996 -0.000000
v -4.935698 1.471996 0.000000
v 4.935698 1.905579 -0.000000
v -4.935698 1.905579 0.000000
v 4.935698 1.471996 1.738898
v 3.899105 1.471996 2.775490
v 4.632086 1.471996 2.471879
v -3.899105 1.471996 2.775490
v -4.935698 1.471996 1.738898
v -4.632086 1.471996 2.471879
v -4.935698 1.905579 1.738898
v -3.899105 1.905579 2.775490
v -4.632086 1.905579 2.471880
v 3.899105 1.905579 2.775490
v 4.935698 1.905579 1.738897
v 4.632086 1.905579 2.471879
vn 1.0000 0.0000 0.0000
vn 0.0000 0.0000 -1.0000
vn -1.0000 0.0000 -0.0000
vn 0.0000 1.0000 0.0000
vn 0.0000 -0.7071 0.7071
vn 0.0000 0.0000 1.0000
vn -0.3827 -0.0000 0.9239
vn -0.9239 0.0000 0.3827
vn 0.3827 0.0000 0.9239
vn 0.9239 -0.0000 0.3827
vn 0.0000 -1.0000 0.0000
usemtl FFCC88
s off
f 3//1 4//1 1//1
f 5//2 6//2 4//2 3//2
f 2//3 6//3 5//3
f 6//4 2//4 1//4 4//4
f 2//5 5//5 3//5 1//5
f 9//3 7//3 10//3
f 11//2 9//2 10//2 12//2
f 8//1 11//1 12//1
f 12//4 10//4 7//4 8//4
f 8//5 7//5 9//5 11//5
f 17//1 13//1 15//1 27//1
f 25//4 28//4 27//4 23//4
f 20//6 18//6 26//6 24//6
f 13//2 14//2 16//2 15//2
f 14//3 21//3 23//3 16//3
f 20//7 24//7 25//7 22//7
f 22//8 25//8 23//8 21//8
f 26//9 18//9 19//9 28//9
f 28//10 19//10 17//10 27//10
f 16//4 23//4 27//4 15//4
f 24//4 26//4 28//4 25//4
f 14//11 13//11 17//11 21//11
f 21//11 17//11 19//11 22//11
f 22//11 19//11 18//11 20//11
